<?xml version="1.0" standalone="no"?>
<!DOCTYPE svg PUBLIC "-//W3C//DTD SVG 20010904//EN"
 "http://www.w3.org/TR/2001/REC-SVG-20010904/DTD/svg10.dtd">
<svg version="1.0" xmlns="http://www.w3.org/2000/svg"
 width="132.000000pt" height="132.000000pt" viewBox="0 0 132.000000 132.000000"
 preserveAspectRatio="xMidYMid meet">
<metadata>
Created by potrace 1.11, written by Peter Selinger 2001-2013
</metadata>
<g transform="translate(0.000000,132.000000) scale(0.100000,-0.100000)"
fill="#000000" stroke="none">
<path d="M0 660 l0 -660 660 0 660 0 0 660 0 660 -660 0 -660 0 0 -660z m835
515 c88 -23 181 -98 223 -182 22 -43 47 -151 37 -161 -4 -4 -84 -8 -179 -10
l-173 -4 -12 46 c-6 25 -25 61 -41 79 l-30 32 -34 -38 c-18 -21 -36 -52 -40
-69 -3 -17 -6 -117 -6 -222 0 -206 9 -245 60 -291 l22 -20 29 33 c16 17 34 52
40 77 l11 45 180 0 181 0 -7 -43 c-18 -114 -59 -187 -141 -249 -78 -59 -126
-69 -316 -66 -148 3 -169 5 -211 26 -74 37 -134 96 -170 170 l-33 67 0 260 0
260 27 57 c50 107 149 188 252 207 51 9 290 6 331 -4z"/>
<path d="M473 1151 c-106 -36 -173 -102 -213 -209 -20 -52 -21 -73 -18 -302 3
-240 3 -246 29 -301 46 -98 134 -165 248 -190 171 -36 355 97 386 279 l7 42
-81 0 c-75 0 -81 -2 -81 -20 0 -47 -59 -119 -113 -139 -77 -29 -168 1 -214 71
l-28 42 0 245 c0 245 0 246 26 302 32 69 88 132 146 166 23 13 43 27 43 29 0
11 -91 1 -137 -15z"/>
<path d="M649 1155 c-68 -22 -139 -74 -177 -129 -57 -85 -63 -127 -60 -380 3
-250 4 -253 78 -304 40 -27 140 -32 140 -7 0 8 -4 15 -10 15 -5 0 -19 19 -32
43 -19 38 -22 61 -26 228 -6 260 11 325 98 369 104 53 229 -1 257 -110 l9 -35
78 -3 79 -3 -7 43 c-17 109 -94 210 -194 255 -68 32 -167 39 -233 18z"/>
<path d="M720 993 c-8 -2 -21 -7 -29 -9 -11 -3 -7 -12 13 -33 15 -16 34 -46
41 -67 l13 -39 77 -3 c68 -3 77 -1 71 13 -3 9 -6 23 -6 31 0 29 -69 91 -115
103 -24 6 -45 11 -47 10 -2 0 -10 -3 -18 -6z"/>
<path d="M925 443 c-25 -125 -78 -208 -163 -260 -60 -35 -54 -48 18 -38 147
20 273 141 296 283 l7 42 -77 0 c-75 0 -76 0 -81 -27z"/>
</g>
</svg>
